<?xml version="1.0" encoding="UTF-8" standalone="no"?>
<!DOCTYPE svg PUBLIC "-//W3C//DTD SVG 1.1//EN" "http://www.w3.org/Graphics/SVG/1.1/DTD/svg11.dtd">
<svg width="100%" height="100%" viewBox="0 0 600 1034" version="1.1" xmlns="http://www.w3.org/2000/svg" xmlns:xlink="http://www.w3.org/1999/xlink" xml:space="preserve" xmlns:serif="http://www.serif.com/" style="fill-rule:evenodd;clip-rule:evenodd;stroke-linejoin:round;stroke-miterlimit:2;">
    <g transform="matrix(1,0,0,1,-764.575,-1389.83)">
        <g id="ukwiau" transform="matrix(-1,0,0,1,2128.33,0)">
            <g transform="matrix(1,0,0,1,-60.8093,13.7311)">
                <path d="M1339.34,2362.75C1301.95,2339.53 1243.69,2303.5 1189.1,2272.98C1151.22,2251.8 1115.66,2234.26 1092.11,2226.83C1090.02,2226.17 1088.33,2229.18 1086,2229.6C1079.6,2230.76 1073.6,2234.09 1067.5,2236.67C1054.85,2242.02 1043.85,2249.16 1035.81,2253.76C1004.5,2268.38 967.21,2254.82 952.595,2223.51C937.981,2192.2 951.538,2154.91 982.85,2140.3C1004.69,2132.26 1041.37,2117.97 1075.3,2117.59C1095.95,2117.36 1115.83,2119.09 1132.78,2127.78C1153.79,2138.55 1182.83,2157.64 1214.13,2181.88C1270.07,2225.21 1334.65,2281.94 1373.76,2316.49C1386.52,2325.99 1389.17,2344.06 1379.68,2356.82C1370.18,2369.59 1352.11,2372.24 1339.34,2362.75Z" style="fill:rgb(40,98,49);"/>
            </g>
            <g transform="matrix(1,0,0,1,68.6558,1.96156)">
                <path d="M1232.5,2356.97C1214.25,2259.7 1177.76,2065.14 1134.42,1924.81C1091.07,1784.48 1011.98,1604.83 972.439,1515" style="fill:rgb(29,117,36);"/>
                <path d="M1204.16,2362.29C1190.44,2301.95 1168.11,2203.94 1141.4,2105.04C1125.75,2047.1 1108.51,1989.07 1090.69,1938.32C1072.95,1887.81 1050.08,1832.35 1026.29,1777.92C985.573,1684.74 941.932,1595.29 915.137,1540.23C901.214,1508.6 915.587,1471.62 947.213,1457.7C978.839,1443.78 1015.82,1458.15 1029.74,1489.78C1052.65,1547.72 1089.97,1641.88 1124.05,1739.58C1144.42,1798 1163.73,1857.44 1178.14,1911.3C1192.55,1965.16 1205.81,2026.49 1217.4,2087.6C1236.69,2189.32 1251.65,2289.8 1260.83,2351.66C1263.76,2367.3 1253.45,2382.37 1237.81,2385.3C1222.17,2388.24 1207.1,2377.92 1204.16,2362.29Z" style="fill:rgb(37,152,55);"/>
            </g>
            <g transform="matrix(1,0,0,1,68.6558,1.96156)">
                <path d="M1232.5,2356.97C1221.86,2216.73 1213.62,1770.14 1109.03,1450.47" style="fill:rgb(29,117,36);"/>
                <path d="M1203.75,2359.15C1193.45,2267.95 1179.35,2046.18 1138.28,1815.42C1117.14,1696.69 1088.57,1575.91 1049.52,1469.94C1038.78,1437.1 1056.72,1401.71 1089.56,1390.97C1122.4,1380.22 1157.79,1398.16 1168.53,1431.01C1201.43,1545.67 1222.47,1675.07 1235.52,1801.78C1259.77,2037.47 1257.63,2262.08 1261.24,2354.79C1262.44,2370.66 1250.54,2384.51 1234.67,2385.72C1218.81,2386.92 1204.95,2375.02 1203.75,2359.15Z" style="fill:rgb(77,166,91);"/>
            </g>
            <g transform="matrix(1,0,0,1,-60.8093,13.7311)">
                <path d="M1330.58,2352.13C1296.54,2289.14 1243.46,2191.13 1189.26,2107.95C1151.02,2049.26 1113.1,1998.42 1081.48,1978.26C1074.62,1973.89 1066.47,1976 1058.23,1977.42C1044.5,1979.79 1030.72,1986.6 1016.81,1993.96C981.169,2012.83 947.939,2041 925.221,2059.49C897.438,2080.04 858.201,2074.17 837.654,2046.38C817.108,2018.6 822.983,1979.36 850.766,1958.82C893.174,1930.42 964.435,1883.42 1027.81,1872.77C1069.59,1865.75 1108.79,1870.41 1140.28,1894.9C1170.1,1918.08 1205.16,1964.25 1238.33,2022.29C1293.9,2119.52 1349.15,2248.65 1382.52,2327.11C1389.42,2341.44 1383.39,2358.69 1369.06,2365.59C1354.72,2372.49 1337.48,2366.46 1330.58,2352.13Z" style="fill:rgb(60,104,67);"/>
            </g>
            <path d="M1272.64,2369.96C1248.76,2307.22 1210.42,2206.66 1169.47,2110.96C1143.42,2050.1 1116.26,1991.53 1091.27,1946.42C1071.55,1910.82 1045.66,1873.36 1018.74,1837.13C971.982,1774.2 921.494,1715.97 890.505,1680.04C869.046,1652.95 873.614,1613.54 900.699,1592.08C927.783,1570.62 967.194,1575.19 988.652,1602.28C1017.69,1642.24 1064.97,1707.05 1108.03,1776.38C1134.29,1818.66 1159.16,1862.28 1177.57,1903.2C1199.79,1952.6 1223.21,2016.24 1245.17,2082.23C1278.37,2182.04 1308.55,2286.51 1327.33,2351.7C1332.37,2366.79 1324.2,2383.14 1309.11,2388.17C1294.02,2393.21 1277.68,2385.05 1272.64,2369.96Z" style="fill:rgb(44,120,56);"/>
        </g>
    </g>
</svg>
